<?xml version="1.0" standalone="no"?>
<!DOCTYPE svg PUBLIC "-//W3C//DTD SVG 20010904//EN"
 "http://www.w3.org/TR/2001/REC-SVG-20010904/DTD/svg10.dtd">
<svg version="1.0" xmlns="http://www.w3.org/2000/svg"
 width="512.000000pt" height="512.000000pt" viewBox="0 0 512.000000 512.000000"
 preserveAspectRatio="xMidYMid meet">
<metadata>
Created by potrace 1.14, written by Peter Selinger 2001-2017
</metadata>
<g transform="translate(0.000000,512.000000) scale(0.100000,-0.100000)"
fill="#000000" stroke="none">
<path d="M1972 4889 c-98 -19 -200 -97 -242 -184 -44 -91 -45 -212 -1 -309 26
-60 95 -127 163 -159 33 -16 59 -36 63 -47 3 -11 5 -87 3 -168 -3 -163 5 -192
58 -212 31 -12 87 9 103 38 7 12 11 84 11 176 0 85 3 161 6 169 3 9 30 27 59
42 70 34 147 119 174 190 44 118 20 258 -61 350 -53 60 -103 91 -175 110 -62
16 -96 17 -161 4z m143 -184 c48 -24 82 -64 96 -116 11 -40 10 -53 -4 -91 -10
-24 -33 -60 -53 -79 -33 -32 -39 -34 -107 -34 -86 0 -124 22 -158 93 -68 140
85 293 226 227z"/>
<path d="M2949 4887 c-212 -60 -315 -282 -225 -484 33 -72 79 -119 161 -165
l60 -34 5 -169 c5 -184 11 -205 61 -226 38 -15 94 12 108 53 6 17 11 102 11
189 l0 158 54 24 c76 35 131 89 168 165 29 59 33 76 33 152 0 99 -26 168 -90
239 -77 85 -234 130 -346 98z m194 -200 c49 -37 70 -87 65 -154 -8 -93 -63
-145 -161 -151 -53 -3 -67 0 -97 20 -150 102 -78 325 102 315 42 -2 65 -10 91
-30z"/>
<path d="M1760 3574 c-121 -33 -237 -131 -291 -247 l-34 -72 0 -775 0 -775 32
-68 c38 -80 122 -173 191 -210 105 -57 101 -57 908 -57 712 0 745 1 806 20
172 53 289 186 318 362 14 90 14 1400 -1 1470 -27 126 -128 265 -229 315 -109
53 -107 53 -905 52 -618 0 -749 -3 -795 -15z m1596 -183 c58 -26 106 -72 134
-128 l25 -48 3 -725 2 -725 -30 -62 c-32 -65 -79 -110 -147 -141 -35 -16 -97
-17 -783 -17 l-745 0 -58 28 c-68 34 -120 96 -142 170 -22 75 -22 1399 0 1474
21 71 74 136 137 167 l52 26 755 0 c713 0 758 -1 797 -19z"/>
<path d="M2010 2934 c0 -3 -43 -155 -96 -337 -53 -183 -114 -394 -136 -471
-22 -76 -42 -145 -45 -153 -4 -11 11 -13 92 -11 l98 3 13 45 c7 25 18 64 24
88 l11 42 154 0 154 0 16 -57 c10 -32 19 -73 22 -90 l6 -33 99 0 c98 0 99 0
92 23 -4 12 -44 150 -89 307 -46 157 -107 367 -136 468 l-53 182 -113 0 c-62
0 -113 -3 -113 -6z m172 -420 c26 -98 48 -185 48 -191 0 -10 -28 -13 -105 -13
-58 0 -105 3 -105 8 -1 28 97 381 105 379 6 -2 31 -84 57 -183z"/>
<path d="M2660 2860 l0 -80 110 0 110 0 0 -330 0 -329 -107 -3 -108 -3 -3 -77
-3 -78 313 0 313 0 -2 77 -1 78 -111 3 -111 3 0 329 0 329 111 3 111 3 1 78 2
77 -312 0 -313 0 0 -80z"/>
<path d="M4540 3326 c-106 -30 -186 -97 -234 -193 -14 -28 -34 -54 -44 -57
-11 -4 -86 -5 -168 -4 -129 3 -153 1 -177 -15 -46 -30 -48 -96 -5 -137 20 -18
35 -20 187 -20 91 0 171 -4 176 -8 6 -4 23 -32 38 -64 32 -65 83 -115 159
-155 47 -25 63 -28 148 -28 88 0 101 3 163 33 227 112 252 442 45 592 -75 54
-206 80 -288 56z m160 -185 c118 -62 126 -231 16 -296 -56 -33 -96 -40 -140
-25 -110 36 -157 149 -103 250 42 80 149 113 227 71z"/>
<path d="M407 3309 c-66 -16 -133 -56 -185 -114 -97 -106 -117 -249 -52 -380
37 -77 90 -131 160 -164 47 -22 69 -26 150 -26 84 0 102 3 151 28 66 32 132
100 160 163 11 24 28 48 39 54 10 5 87 10 170 10 166 0 203 9 220 56 15 38 12
50 -14 81 l-24 28 -178 5 -179 5 -27 58 c-50 103 -138 171 -256 196 -60 13
-82 13 -135 0z m150 -190 c52 -25 81 -63 92 -122 11 -60 -8 -112 -56 -158
-144 -135 -363 53 -256 219 50 77 137 101 220 61z"/>
<path d="M4498 2319 c-70 -25 -144 -90 -178 -155 -45 -89 -33 -84 -217 -84
l-165 0 -29 -29 c-48 -48 -36 -111 26 -137 25 -10 78 -14 190 -14 l155 0 26
-51 c122 -242 436 -276 595 -65 76 100 91 254 37 361 -32 62 -113 139 -176
167 -68 31 -189 34 -264 7z m202 -174 c41 -21 88 -80 96 -120 8 -47 -11 -115
-43 -150 -110 -118 -315 -31 -300 127 8 96 97 176 181 163 21 -3 50 -12 66
-20z"/>
<path d="M371 2304 c-82 -30 -166 -98 -202 -165 -19 -36 -39 -120 -39 -165 0
-59 34 -162 70 -210 72 -99 216 -158 332 -136 121 22 211 90 263 197 l27 53
175 4 175 3 30 34 c24 27 29 39 24 65 -3 17 -18 41 -34 53 -26 22 -36 23 -198
23 l-171 0 -21 50 c-28 67 -102 144 -171 177 -71 34 -192 42 -260 17z m154
-165 c77 -21 125 -86 125 -170 0 -127 -135 -208 -250 -149 -55 28 -83 72 -88
140 -6 86 34 147 115 175 47 17 49 17 98 4z"/>
<path d="M2846 1221 c-4 -5 -75 -72 -159 -147 -83 -76 -153 -141 -155 -144 -1
-3 42 -5 95 -5 l98 0 3 -352 2 -353 135 0 135 0 0 356 0 355 95 -3 c52 -2 95
0 95 3 0 7 -317 293 -330 297 -4 2 -11 -1 -14 -7z"/>
<path d="M1900 850 l0 -329 -101 -3 -101 -3 162 -145 c88 -80 165 -145 171
-145 5 0 82 65 171 145 l161 145 -99 5 -99 5 -3 328 -2 327 -130 0 -130 0 0
-330z"/>
</g>
</svg>
